<svg xmlns="http://www.w3.org/2000/svg" viewBox="0 0 32 32">
  <path fill="#47A248" d="M15.9.087l.854 1.604c.192.296.4.558.645.802.715.715 1.394 1.464 2.004 2.266 1.447 1.9 2.423 4.01 3.12 6.292.418 1.394.645 2.824.662 4.27.07 4.323-1.412 8.035-4.4 11.12-.488.488-1.01.94-1.57 1.342-.296 0-.436-.227-.558-.436-.227-.383-.366-.802-.436-1.222-.105-.523-.174-1.046-.14-1.586v-.244c-.024-.052-.285-24.052-.285-24.052z"/>
  <path fill="#47A248" d="M15.9.034c-.035-.07-.07-.017-.105.017.017.35-.105.244-.122.26-.017.017-.03.07-.052.07-.435.227-.858.488-1.255.8-.906.73-1.604 1.676-2.197 2.662-1.306 2.196-2.197 4.633-2.662 7.228-.244 1.393-.383 2.824-.314 4.27.07 1.464.366 2.894.976 4.252.94 2.126 2.337 3.85 4.114 5.24.017.014.035.03.07.017.015-.012.015-.03.015-.05-.306-1.81-.244-3.635-.035-5.45.244-2.16.767-4.236 1.586-6.213.488-1.15 1.08-2.232 1.882-3.208.313-.383.645-.732.994-1.046.227-.21.47-.384.715-.558.08-.053.157-.105.244-.157.015-.012.03-.03.03-.052 0-.07-.017-.105-.07-.122l-.906-1.604c-.174-.296-.383-.558-.627-.78-.12-.122-.24-.244-.38-.35-.077-.07-.174-.12-.28-.157h-.024c-.052 0-.07.017-.087.07l-.244.453z"/>
  <path fill="#47A248" d="M16.754 28.845c.035-.4.227-.732.436-1.063-.21-.087-.366-.26-.488-.453-.105-.174-.192-.383-.26-.575-.244-.732-.296-1.5-.366-2.248v-.453c-.087.07-.105.662-.105.75-.017.17-.052.327-.07.488-.07.454-.157.924-.28 1.377-.435 1.5-1.183 2.824-1.996 4.115-.087.14-.21.244-.313.418v.035c.17.01.03.017.05.017.36-.105.697-.22 1.046-.366.854-.366 1.655-.767 2.252-1.464.54-.645.906-1.37 1.098-2.16v-.035c.017 0 .017-.012.017-.03z"/>
</svg>