<svg xmlns="http://www.w3.org/2000/svg" viewBox="0 0 512 512">
  <path fill="#F05032" d="M441.5,140.2 L371.8,70.5 C366.7,65.4 359.1,63 352,63 L352,63 L160,63 C152.9,63 145.3,65.4 140.2,70.5 L70.5,140.2 C65.4,145.3 63,152.9 63,160 L63,160 L63,352 C63,359.1 65.4,366.7 70.5,371.8 L140.2,441.5 C145.3,446.6 152.9,449 160,449 L160,449 L352,449 C359.1,449 366.7,446.6 371.8,441.5 L441.5,371.8 C446.6,366.7 449,359.1 449,352 L449,352 L449,160 C449,152.9 446.6,145.3 441.5,140.2 Z M255.5,414.5 C176.5,414.5 112.5,350.5 112.5,271.5 C112.5,192.5 176.5,128.5 255.5,128.5 C334.5,128.5 398.5,192.5 398.5,271.5 C398.5,350.5 334.5,414.5 255.5,414.5 Z M255.5,174.5 C202.1,174.5 158.5,218.1 158.5,271.5 C158.5,324.9 202.1,368.5 255.5,368.5 C308.9,368.5 352.5,324.9 352.5,271.5 C352.5,218.1 308.9,174.5 255.5,174.5 Z"/>
</svg>