<svg xmlns="http://www.w3.org/2000/svg" viewBox="0 0 256 256">
  <defs>
    <linearGradient id="a" x1="0%" y1="0%" x2="100%" y2="100%">
      <stop offset="0%" stop-color="#3E63DD"/>
      <stop offset="100%" stop-color="#5B7EE8"/>
    </linearGradient>
  </defs>
  <rect width="256" height="256" fill="url(#a)" rx="25"/>
  <path fill="#fff" d="M128 40c-48.601 0-88 39.399-88 88s39.399 88 88 88 88-39.399 88-88-39.399-88-88-88zm0 20c37.555 0 68 30.445 68 68s-30.445 68-68 68-68-30.445-68-68 30.445-68 68-68z"/>
  <path fill="#fff" d="M128 80c-26.51 0-48 21.49-48 48s21.49 48 48 48 48-21.49 48-48-21.49-48-48-48zm0 15c18.225 0 33 14.775 33 33s-14.775 33-33 33-33-14.775-33-33 14.775-33 33-33z"/>
</svg>